<?xml version="1.0" standalone="no"?><!DOCTYPE svg PUBLIC "-//W3C//DTD SVG 1.1//EN" "http://www.w3.org/Graphics/SVG/1.1/DTD/svg11.dtd"><svg t="1526506202099" class="icon" style="" viewBox="0 0 1024 1024" version="1.1" xmlns="http://www.w3.org/2000/svg" p-id="1855" xmlns:xlink="http://www.w3.org/1999/xlink" width="200" height="200"><defs><style type="text/css"></style></defs><path d="M512 0C229.708108 0 0 229.708108 0 512S229.708108 1024 512 1024 1024 794.291892 1024 512 794.291892 0 512 0m0 166.054054c85.794595 0 152.216216 66.421622 152.216216 152.216216S597.794595 470.486486 512 470.486486 359.783784 404.064865 359.783784 318.27027 426.205405 166.054054 512 166.054054M498.162162 885.621622c-127.308108 0-238.010811-69.189189-304.432432-168.821622 0-105.167568 202.032432-163.286486 304.432432-163.286486s304.432432 58.118919 304.432433 163.286486c-66.421622 99.632432-177.124324 168.821622-304.432433 168.821622" p-id="1856"></path></svg>