<?xml version="1.0" standalone="no"?>
<!DOCTYPE svg PUBLIC "-//W3C//DTD SVG 1.1//EN" "http://www.w3.org/Graphics/SVG/1.1/DTD/svg11.dtd">
<svg t="1526548121977" class="icon" style="" viewBox="0 0 1024 1024" version="1.1" 
    xmlns="http://www.w3.org/2000/svg" p-id="3707" 
    xmlns:xlink="http://www.w3.org/1999/xlink" width="200" height="200">
    <defs>
        <style type="text/css"></style>
    </defs>
    <path d="M128 64h256a64 64 0 0 1 64 64v256a64 64 0 0 1-64 64H128a64 64 0 0 1-64-64V128a64 64 0 0 1 64-64z m64 128v128h128V192H192zM128 576h256a64 64 0 0 1 64 64v256a64 64 0 0 1-64 64H128a64 64 0 0 1-64-64v-256a64 64 0 0 1 64-64z m64 128v128h128v-128H192zM640 64h256a64 64 0 0 1 64 64v256a64 64 0 0 1-64 64h-256a64 64 0 0 1-64-64V128a64 64 0 0 1 64-64z m64 128v128h128V192h-128zM640 576h256a64 64 0 0 1 64 64v256a64 64 0 0 1-64 64h-256a64 64 0 0 1-64-64v-256a64 64 0 0 1 64-64z m64 128v128h128v-128h-128z" p-id="3708"></path>
</svg>